<mxfile host="app.diagrams.net" modified="2020-11-21T06:49:37.371Z" agent="5.0 (Windows NT 10.0; Win64; x64) AppleWebKit/537.36 (KHTML, like Gecko) Chrome/86.0.4240.198 Safari/537.36" etag="HCxX9lMsOqq7bY8I63qq" version="13.10.0" type="github">
  <diagram id="N4p-HZpaZ5wxQ_1hCPDs" name="Page-1">
    <mxGraphModel dx="1185" dy="635" grid="1" gridSize="10" guides="1" tooltips="1" connect="1" arrows="1" fold="1" page="1" pageScale="1" pageWidth="827" pageHeight="1169" math="0" shadow="0">
      <root>
        <mxCell id="0" />
        <mxCell id="1" parent="0" />
        <mxCell id="x6mNRfFWbplxZccTS7os-7" style="edgeStyle=orthogonalEdgeStyle;rounded=1;orthogonalLoop=1;jettySize=auto;html=1;" edge="1" parent="1" source="x6mNRfFWbplxZccTS7os-1" target="x6mNRfFWbplxZccTS7os-5">
          <mxGeometry relative="1" as="geometry" />
        </mxCell>
        <mxCell id="x6mNRfFWbplxZccTS7os-8" style="edgeStyle=orthogonalEdgeStyle;rounded=1;orthogonalLoop=1;jettySize=auto;html=1;entryX=0.5;entryY=0;entryDx=0;entryDy=0;" edge="1" parent="1" source="x6mNRfFWbplxZccTS7os-1" target="x6mNRfFWbplxZccTS7os-6">
          <mxGeometry relative="1" as="geometry" />
        </mxCell>
        <mxCell id="x6mNRfFWbplxZccTS7os-1" value="Observer&lt;br&gt;&lt;br&gt;void update()" style="rounded=0;whiteSpace=wrap;html=1;fillColor=#d5e8d4;strokeColor=#82b366;" vertex="1" parent="1">
          <mxGeometry x="340" y="170" width="150" height="70" as="geometry" />
        </mxCell>
        <mxCell id="x6mNRfFWbplxZccTS7os-3" value="&lt;font style=&quot;font-size: 18px&quot;&gt;观察者模式&lt;/font&gt;" style="text;html=1;strokeColor=none;fillColor=none;align=left;verticalAlign=middle;whiteSpace=wrap;rounded=0;" vertex="1" parent="1">
          <mxGeometry x="70" y="100" width="240" height="50" as="geometry" />
        </mxCell>
        <mxCell id="x6mNRfFWbplxZccTS7os-5" value="AnnaConcreteObserver" style="rounded=0;whiteSpace=wrap;html=1;fillColor=#dae8fc;strokeColor=#6c8ebf;" vertex="1" parent="1">
          <mxGeometry x="170" y="310" width="180" height="60" as="geometry" />
        </mxCell>
        <mxCell id="x6mNRfFWbplxZccTS7os-6" value="LwConcreteObserver" style="rounded=0;whiteSpace=wrap;html=1;fillColor=#dae8fc;strokeColor=#6c8ebf;" vertex="1" parent="1">
          <mxGeometry x="490" y="310" width="200" height="60" as="geometry" />
        </mxCell>
        <mxCell id="x6mNRfFWbplxZccTS7os-11" style="edgeStyle=orthogonalEdgeStyle;rounded=1;orthogonalLoop=1;jettySize=auto;html=1;entryX=0.5;entryY=0;entryDx=0;entryDy=0;strokeColor=#000000;" edge="1" parent="1" source="x6mNRfFWbplxZccTS7os-9" target="x6mNRfFWbplxZccTS7os-10">
          <mxGeometry relative="1" as="geometry" />
        </mxCell>
        <mxCell id="x6mNRfFWbplxZccTS7os-9" value="Subject&lt;br&gt;&lt;br&gt;addObserver()&lt;br&gt;removeObserver()&lt;br&gt;notifyAllObserver()" style="rounded=1;whiteSpace=wrap;html=1;fillColor=#dae8fc;strokeColor=#6c8ebf;" vertex="1" parent="1">
          <mxGeometry x="310" y="410" width="235" height="110" as="geometry" />
        </mxCell>
        <mxCell id="x6mNRfFWbplxZccTS7os-10" value="&lt;span&gt;BossConcreteSubject&lt;/span&gt;" style="rounded=0;whiteSpace=wrap;html=1;fillColor=#dae8fc;strokeColor=#6c8ebf;" vertex="1" parent="1">
          <mxGeometry x="327.5" y="600" width="200" height="60" as="geometry" />
        </mxCell>
      </root>
    </mxGraphModel>
  </diagram>
</mxfile>
